<svg xmlns="http://www.w3.org/2000/svg" width="230.983" height="40.832" viewBox="0 0 230.983 40.832">
  <g id="Group_788" data-name="Group 788" transform="translate(-181.842 -40)">
    <path id="Path_67459" data-name="Path 67459" d="M1.842,0V-16.1H7.7a7.321,7.321,0,0,1,4.144.988A3.179,3.179,0,0,1,13.3-12.331a3.3,3.3,0,0,1-.882,2.28,4.632,4.632,0,0,1-2.252,1.359v.045a4.463,4.463,0,0,1,2.746,1.269,3.549,3.549,0,0,1,1.028,2.572A4.3,4.3,0,0,1,12.354-1.3,6.626,6.626,0,0,1,8.03,0ZM5.469-13.432v3.818H7.064a2.658,2.658,0,0,0,1.769-.545,1.856,1.856,0,0,0,.646-1.5q0-1.774-2.65-1.774Zm0,6.514v4.245H7.435a3.025,3.025,0,0,0,1.971-.584,1.951,1.951,0,0,0,.713-1.595,1.82,1.82,0,0,0-.7-1.516,3.105,3.105,0,0,0-1.96-.55ZM25.808,0H22.45V-1.651H22.4A3.748,3.748,0,0,1,18.979.281a3.583,3.583,0,0,1-2.634-.949,3.4,3.4,0,0,1-.96-2.532q0-3.347,3.964-3.863l3.122-.416q0-1.887-2.044-1.887A6.977,6.977,0,0,0,16.52-8.142v-2.673a8.792,8.792,0,0,1,2.027-.674,10.656,10.656,0,0,1,2.342-.292q4.919,0,4.919,4.908ZM22.472-4.672v-.775l-2.089.27q-1.729.225-1.729,1.561a1.29,1.29,0,0,0,.421.994,1.618,1.618,0,0,0,1.14.387,2.1,2.1,0,0,0,1.628-.691A2.5,2.5,0,0,0,22.472-4.672ZM46.876,0H43.338V-6.559q0-2.5-1.842-2.5a1.692,1.692,0,0,0-1.426.752,3.092,3.092,0,0,0-.55,1.875V0H35.971V-6.626q0-2.437-1.808-2.437a1.733,1.733,0,0,0-1.454.719,3.163,3.163,0,0,0-.545,1.954V0H28.615V-11.5h3.549v1.8h.045a4.243,4.243,0,0,1,1.544-1.5,4.244,4.244,0,0,1,2.173-.578,3.311,3.311,0,0,1,3.335,2.145,4.254,4.254,0,0,1,3.863-2.145q3.751,0,3.751,4.627Zm6.4-1.336h-.045V0H49.684V-17.025h3.549v7.255h.045a4.211,4.211,0,0,1,3.74-2.01,4.1,4.1,0,0,1,3.425,1.527,6.587,6.587,0,0,1,1.2,4.178,7.133,7.133,0,0,1-1.4,4.616A4.573,4.573,0,0,1,56.489.281,3.623,3.623,0,0,1,53.277-1.336Zm-.1-4.852v1.179a2.692,2.692,0,0,0,.64,1.842,2.083,2.083,0,0,0,1.64.73,2.176,2.176,0,0,0,1.881-.938,4.528,4.528,0,0,0,.668-2.656,3.6,3.6,0,0,0-.612-2.229,2.065,2.065,0,0,0-1.746-.8,2.256,2.256,0,0,0-1.769.8A3.029,3.029,0,0,0,53.176-6.188ZM69.427.281a6.182,6.182,0,0,1-4.52-1.612,5.843,5.843,0,0,1-1.645-4.374,5.843,5.843,0,0,1,1.707-4.464,6.45,6.45,0,0,1,4.616-1.612,6.107,6.107,0,0,1,4.492,1.612A5.729,5.729,0,0,1,75.7-5.907a6.081,6.081,0,0,1-1.679,4.526A6.25,6.25,0,0,1,69.427.281Zm.09-9.344a2.367,2.367,0,0,0-1.954.865,3.813,3.813,0,0,0-.7,2.448q0,3.313,2.673,3.313,2.549,0,2.549-3.4Q72.088-9.063,69.517-9.063ZM83.487.281a6.182,6.182,0,0,1-4.52-1.612,5.843,5.843,0,0,1-1.645-4.374,5.843,5.843,0,0,1,1.707-4.464,6.45,6.45,0,0,1,4.616-1.612,6.107,6.107,0,0,1,4.492,1.612,5.729,5.729,0,0,1,1.628,4.262,6.081,6.081,0,0,1-1.679,4.526A6.25,6.25,0,0,1,83.487.281Zm.09-9.344a2.367,2.367,0,0,0-1.954.865,3.813,3.813,0,0,0-.7,2.448q0,3.313,2.673,3.313,2.549,0,2.549-3.4Q86.149-9.063,83.577-9.063Z" transform="translate(180 69.916)" fill="#fff"/>
    <g id="Rounded_bamboo_tree_logo_design" data-name="Rounded bamboo tree logo design" transform="translate(-150.345 -283.839)" opacity="0.8">
      <g id="Group_69" data-name="Group 69" transform="translate(522.345 323.839)">
        <path id="Path_66005" data-name="Path 66005" d="M-230.348-439.59a20.41,20.41,0,0,0-11.146,3.314,18.862,18.862,0,0,0-7.006-1.093c10.963,1.572,16.77,12.145,16.77,12.145a28.437,28.437,0,0,1-13.535-7.885,20.418,20.418,0,0,0-5.494,13.935A20.418,20.418,0,0,0-242.4-402.7a6.149,6.149,0,0,0-3,1.092,7.555,7.555,0,0,1,3.439-.766,10.337,10.337,0,0,1,3.69.71,10.152,10.152,0,0,1-1.694.493,20.417,20.417,0,0,0,3.029,1.316,8.225,8.225,0,0,0,.176-1.868h0v-.093c.013-.635.012-1.362,0-2.147v-1.691c.012-.785.013-6.122,0-6.757v-.094h0a5.349,5.349,0,0,0-.247-2.013c-.36-.44-.354-1.537.033-1.537h5.675c.387,0,.393,1.1.033,1.537a5.35,5.35,0,0,0-.247,2.013h0v.094c-.013.635-.011,5.972,0,6.757v1.691c-.011.785-.013,1.512,0,2.147v.093h0a5.35,5.35,0,0,0,.247,2.013,1.546,1.546,0,0,1,.264.939q.331.01.661.011.256,0,.512-.006c0-.1,0-.194,0-.239v-.094h0a5.351,5.351,0,0,0-.247-2.013c-.36-.44-.354-1.537.033-1.537h5.675c.387,0,.393,1.1.033,1.537a3.809,3.809,0,0,0-.231,1.518,20.412,20.412,0,0,0,9.558-6.1,16.033,16.033,0,0,1-7.7-1.183,16.39,16.39,0,0,1,5.421-.972,12.17,12.17,0,0,1,5.887,1.366s-.176-.712-1.706-1.741a20.418,20.418,0,0,0,3.186-10.952,20.419,20.419,0,0,0-3.984-12.118,20.413,20.413,0,0,0-10.4-7.387l-.029.039a5.348,5.348,0,0,0-.247,2.012h0v.094c-.013.635-.011,5.972,0,6.757v1.691c-.011.785-.013,1.512,0,2.147v.094h0a5.349,5.349,0,0,0,.247,2.013c.36.44.354,1.536-.033,1.536h-5.675c-.387,0-.393-1.1-.033-1.536a5.351,5.351,0,0,0,.247-2.013h0v-.094c.013-.635.012-1.362,0-2.147v-1.691c.012-.785.013-6.122,0-6.757v-.094h0a5.35,5.35,0,0,0-.247-2.012,1.552,1.552,0,0,1-.263-.95Zm-4.278.511c5,5.058,3.162,13.07,3.162,13.07-3.889-3.811-3.162-13.07-3.162-13.07Zm-6.263,12.815a25.246,25.246,0,0,1,9.019,1.688,24.163,24.163,0,0,1-17.409.225,18.449,18.449,0,0,1,8.39-1.913Zm9.362,3.35c0,.192,0,2.157.007,2.335v.093h0a5.35,5.35,0,0,0,.247,2.013c.36.44.354,1.537-.033,1.537h-5.675c-.387,0-.393-1.1-.033-1.537a5.352,5.352,0,0,0,.247-2.013h0v-.093c0-.178.006-.365.007-.557Zm1.475,1.5h5.675c.387,0,.393,1.1.033,1.537a5.348,5.348,0,0,0-.247,2.013h0v.094c-.013.635-.011,5.972,0,6.757v1.691c-.011.785-.013,1.512,0,2.147v.093h0a5.35,5.35,0,0,0,.247,2.013c.36.44.354,1.537-.033,1.537h-5.675c-.387,0-.393-1.1-.033-1.537a5.351,5.351,0,0,0,.247-2.013h0v-.093c.013-.635.012-1.362,0-2.147v-1.691c.012-.785.013-6.122,0-6.757v-.094h0a5.35,5.35,0,0,0-.247-2.013c-.36-.44-.354-1.537.033-1.537Zm9.328,5.153s.341,6.026-2.24,8.448c0,0-1.078-5.232,2.24-8.448Zm8.99,1.308A17.627,17.627,0,0,1-222.8-407.3s3.923-6.787,11.069-7.653Zm-27.64,7.344c2.035,2.081,1.268,5.358,1.268,5.358-1.585-1.568-1.268-5.358-1.268-5.358Zm-5.684.672c4.486.666,6.842,5.007,6.842,5.007a11.105,11.105,0,0,1-6.842-5.007Zm0,0" transform="translate(250.758 439.59)" fill="#63cffe"/>
      </g>
    </g>
    <path id="Path_67460" data-name="Path 67460" d="M11.152-13.151H5.469V-9.2h5.222v2.942H5.469V0H1.842V-16.1h9.31Zm4.1-.168a2.073,2.073,0,0,1-1.471-.533,1.719,1.719,0,0,1-.573-1.308,1.658,1.658,0,0,1,.573-1.3,2.141,2.141,0,0,1,1.471-.505,2.137,2.137,0,0,1,1.477.505,1.665,1.665,0,0,1,.567,1.3,1.712,1.712,0,0,1-.567,1.325A2.108,2.108,0,0,1,15.251-13.319ZM17,0H13.454V-11.5H17ZM31.1,0H27.56V-6.39q0-2.673-1.909-2.673a1.894,1.894,0,0,0-1.516.708,2.7,2.7,0,0,0-.6,1.8V0H19.99V-11.5h3.549v1.819h.045a4.067,4.067,0,0,1,3.695-2.1q3.818,0,3.818,4.739ZM43.473,0H40.115V-1.651H40.07A3.748,3.748,0,0,1,36.645.281a3.583,3.583,0,0,1-2.634-.949,3.4,3.4,0,0,1-.96-2.532q0-3.347,3.964-3.863l3.122-.416q0-1.887-2.044-1.887a6.977,6.977,0,0,0-3.908,1.224v-2.673a8.792,8.792,0,0,1,2.027-.674,10.656,10.656,0,0,1,2.342-.292q4.919,0,4.919,4.908ZM40.138-4.672v-.775l-2.089.27q-1.729.225-1.729,1.561a1.29,1.29,0,0,0,.421.994,1.618,1.618,0,0,0,1.14.387,2.1,2.1,0,0,0,1.628-.691A2.5,2.5,0,0,0,40.138-4.672ZM57.388,0H53.85V-6.39q0-2.673-1.909-2.673a1.894,1.894,0,0,0-1.516.708,2.7,2.7,0,0,0-.6,1.8V0H46.281V-11.5H49.83v1.819h.045a4.067,4.067,0,0,1,3.695-2.1q3.818,0,3.818,4.739ZM68.91-.416a7.017,7.017,0,0,1-3.47.7,5.869,5.869,0,0,1-4.29-1.606,5.547,5.547,0,0,1-1.64-4.144,6.11,6.11,0,0,1,1.758-4.621,6.5,6.5,0,0,1,4.7-1.69,6.031,6.031,0,0,1,2.942.539v3.01a4.046,4.046,0,0,0-2.482-.831,3.27,3.27,0,0,0-2.42.893,3.331,3.331,0,0,0-.893,2.465,3.277,3.277,0,0,0,.854,2.4,3.137,3.137,0,0,0,2.347.87,4.684,4.684,0,0,0,2.594-.831ZM81.567-4.739h-7.5q.18,2.5,3.156,2.5a6.161,6.161,0,0,0,3.335-.9V-.573a8.762,8.762,0,0,1-4.144.854,5.834,5.834,0,0,1-4.324-1.544A5.834,5.834,0,0,1,70.55-5.57a6.154,6.154,0,0,1,1.662-4.537A5.537,5.537,0,0,1,76.3-11.781a5.026,5.026,0,0,1,3.891,1.494,5.752,5.752,0,0,1,1.376,4.054ZM78.276-6.918q0-2.471-2-2.471a1.909,1.909,0,0,0-1.477.708,3.211,3.211,0,0,0-.758,1.763Z" transform="translate(275 69.916)" fill="#fff"/>
  </g>
</svg>
