<svg xmlns="http://www.w3.org/2000/svg" width="232.825" height="40.832" viewBox="0 0 232.825 40.832">
  <g id="Group_788" data-name="Group 788" transform="translate(-180 -40)">
    <text id="Bamboo" transform="translate(180 69.916)" fill="#fff" font-size="23" font-family="SegoeUI-Bold, Segoe UI" font-weight="700"><tspan x="0" y="0">Bamboo</tspan></text>
    <g id="Rounded_bamboo_tree_logo_design" data-name="Rounded bamboo tree logo design" transform="translate(-150.345 -283.839)" opacity="0.8">
      <g id="Group_69" data-name="Group 69" transform="translate(522.345 323.839)">
        <path id="Path_66005" data-name="Path 66005" d="M-230.348-439.59a20.41,20.41,0,0,0-11.146,3.314,18.862,18.862,0,0,0-7.006-1.093c10.963,1.572,16.77,12.145,16.77,12.145a28.437,28.437,0,0,1-13.535-7.885,20.418,20.418,0,0,0-5.494,13.935A20.418,20.418,0,0,0-242.4-402.7a6.149,6.149,0,0,0-3,1.092,7.555,7.555,0,0,1,3.439-.766,10.337,10.337,0,0,1,3.69.71,10.152,10.152,0,0,1-1.694.493,20.417,20.417,0,0,0,3.029,1.316,8.225,8.225,0,0,0,.176-1.868h0v-.093c.013-.635.012-1.362,0-2.147v-1.691c.012-.785.013-6.122,0-6.757v-.094h0a5.349,5.349,0,0,0-.247-2.013c-.36-.44-.354-1.537.033-1.537h5.675c.387,0,.393,1.1.033,1.537a5.35,5.35,0,0,0-.247,2.013h0v.094c-.013.635-.011,5.972,0,6.757v1.691c-.011.785-.013,1.512,0,2.147v.093h0a5.35,5.35,0,0,0,.247,2.013,1.546,1.546,0,0,1,.264.939q.331.01.661.011.256,0,.512-.006c0-.1,0-.194,0-.239v-.094h0a5.351,5.351,0,0,0-.247-2.013c-.36-.44-.354-1.537.033-1.537h5.675c.387,0,.393,1.1.033,1.537a3.809,3.809,0,0,0-.231,1.518,20.412,20.412,0,0,0,9.558-6.1,16.033,16.033,0,0,1-7.7-1.183,16.39,16.39,0,0,1,5.421-.972,12.17,12.17,0,0,1,5.887,1.366s-.176-.712-1.706-1.741a20.418,20.418,0,0,0,3.186-10.952,20.419,20.419,0,0,0-3.984-12.118,20.413,20.413,0,0,0-10.4-7.387l-.029.039a5.348,5.348,0,0,0-.247,2.012h0v.094c-.013.635-.011,5.972,0,6.757v1.691c-.011.785-.013,1.512,0,2.147v.094h0a5.349,5.349,0,0,0,.247,2.013c.36.44.354,1.536-.033,1.536h-5.675c-.387,0-.393-1.1-.033-1.536a5.351,5.351,0,0,0,.247-2.013h0v-.094c.013-.635.012-1.362,0-2.147v-1.691c.012-.785.013-6.122,0-6.757v-.094h0a5.35,5.35,0,0,0-.247-2.012,1.552,1.552,0,0,1-.263-.95Zm-4.278.511c5,5.058,3.162,13.07,3.162,13.07-3.889-3.811-3.162-13.07-3.162-13.07Zm-6.263,12.815a25.246,25.246,0,0,1,9.019,1.688,24.163,24.163,0,0,1-17.409.225,18.449,18.449,0,0,1,8.39-1.913Zm9.362,3.35c0,.192,0,2.157.007,2.335v.093h0a5.35,5.35,0,0,0,.247,2.013c.36.44.354,1.537-.033,1.537h-5.675c-.387,0-.393-1.1-.033-1.537a5.352,5.352,0,0,0,.247-2.013h0v-.093c0-.178.006-.365.007-.557Zm1.475,1.5h5.675c.387,0,.393,1.1.033,1.537a5.348,5.348,0,0,0-.247,2.013h0v.094c-.013.635-.011,5.972,0,6.757v1.691c-.011.785-.013,1.512,0,2.147v.093h0a5.35,5.35,0,0,0,.247,2.013c.36.44.354,1.537-.033,1.537h-5.675c-.387,0-.393-1.1-.033-1.537a5.351,5.351,0,0,0,.247-2.013h0v-.093c.013-.635.012-1.362,0-2.147v-1.691c.012-.785.013-6.122,0-6.757v-.094h0a5.35,5.35,0,0,0-.247-2.013c-.36-.44-.354-1.537.033-1.537Zm9.328,5.153s.341,6.026-2.24,8.448c0,0-1.078-5.232,2.24-8.448Zm8.99,1.308A17.627,17.627,0,0,1-222.8-407.3s3.923-6.787,11.069-7.653Zm-27.64,7.344c2.035,2.081,1.268,5.358,1.268,5.358-1.585-1.568-1.268-5.358-1.268-5.358Zm-5.684.672c4.486.666,6.842,5.007,6.842,5.007a11.105,11.105,0,0,1-6.842-5.007Zm0,0" transform="translate(250.758 439.59)" fill="#63cffe"/>
      </g>
    </g>
    <text id="Finance" transform="translate(275 69.916)" fill="#fff" font-size="23" font-family="SegoeUI-Bold, Segoe UI" font-weight="700"><tspan x="0" y="0">Finance</tspan></text>
  </g>
</svg>
