<svg xmlns="http://www.w3.org/2000/svg" width="232.825" height="40.832" xmlns:v="https://vecta.io/nano"><text fill="#fff" font-size="23" font-family="SegoeUI-Bold, Segoe UI" font-weight="700"><tspan x="0" y="29.916">Bamboo</tspan></text><g opacity=".8"><path d="M212.41 0a20.41 20.41 0 0 0-11.146 3.314 18.86 18.86 0 0 0-7.006-1.093c10.963 1.572 16.77 12.145 16.77 12.145-5.161-1.309-9.85-4.041-13.535-7.885a20.42 20.42 0 0 0 2.865 30.409 6.15 6.15 0 0 0-3 1.092c1.07-.523 2.248-.785 3.439-.766 1.263.009 2.514.25 3.69.71a10.15 10.15 0 0 1-1.694.493c.972.52 1.985.96 3.029 1.316.13-.614.189-1.241.176-1.868h0v-.093c.013-.635.012-1.362 0-2.147v-1.691-6.757-.094h0a5.35 5.35 0 0 0-.247-2.013c-.36-.44-.354-1.537.033-1.537h5.675c.387 0 .393 1.1.033 1.537a5.35 5.35 0 0 0-.247 2.013h0v.094c-.013.635-.011 5.972 0 6.757v1.691 2.147.093h0a5.35 5.35 0 0 0 .247 2.013c.187.276.28.606.264.939q.331.01.661.011.256 0 .512-.006v-.239-.094h0a5.35 5.35 0 0 0-.247-2.013c-.36-.44-.354-1.537.033-1.537h5.675c.387 0 .393 1.1.033 1.537a3.81 3.81 0 0 0-.231 1.518 20.41 20.41 0 0 0 9.558-6.1c-2.625.245-5.27-.162-7.7-1.183a16.39 16.39 0 0 1 5.421-.972 12.17 12.17 0 0 1 5.887 1.366s-.176-.712-1.706-1.741a20.42 20.42 0 0 0-.798-23.07c-2.589-3.51-6.233-6.099-10.4-7.387l-.029.039a5.35 5.35 0 0 0-.247 2.012h0v.094c-.013.635-.011 5.972 0 6.757v1.691 2.147.094h0a5.35 5.35 0 0 0 .247 2.013c.36.44.354 1.536-.033 1.536h-5.675c-.387 0-.393-1.1-.033-1.536a5.35 5.35 0 0 0 .247-2.013h0v-.094c.013-.635.012-1.362 0-2.147V9.811 3.054 2.96h0a5.35 5.35 0 0 0-.247-2.012 1.55 1.55 0 0 1-.263-.95zm-4.278.511c5 5.058 3.162 13.07 3.162 13.07-3.889-3.811-3.162-13.07-3.162-13.07zm-6.263 12.815c3.084.007 6.141.579 9.019 1.688-5.573 2.236-11.78 2.316-17.409.225a18.45 18.45 0 0 1 8.39-1.913zm9.362 3.35l.007 2.335v.093h0a5.35 5.35 0 0 0 .247 2.013c.36.44.354 1.537-.033 1.537h-5.675c-.387 0-.393-1.1-.033-1.537a5.35 5.35 0 0 0 .247-2.013h0v-.093l.007-.557zm1.475 1.5h5.675c.387 0 .393 1.1.033 1.537a5.35 5.35 0 0 0-.247 2.013h0v.094c-.013.635-.011 5.972 0 6.757v1.691 2.147.093h0a5.35 5.35 0 0 0 .247 2.013c.36.44.354 1.537-.033 1.537h-5.675c-.387 0-.393-1.1-.033-1.537a5.35 5.35 0 0 0 .247-2.013h0v-.093c.013-.635.012-1.362 0-2.147v-1.691-6.757-.094h0a5.35 5.35 0 0 0-.247-2.013c-.36-.44-.354-1.537.033-1.537zm9.328 5.153s.341 6.026-2.24 8.448c0 0-1.078-5.232 2.24-8.448zm8.99 1.308c-2.532 3.914-6.511 6.665-11.066 7.653 0 0 3.923-6.787 11.069-7.653zm-27.64 7.344c2.035 2.081 1.268 5.358 1.268 5.358-1.585-1.568-1.268-5.358-1.268-5.358zm-5.684.672c4.486.666 6.842 5.007 6.842 5.007-2.853-.698-5.313-2.499-6.842-5.007zm0 0" fill="#63cffe"/></g><text fill="#fff" font-size="23" font-family="SegoeUI-Bold, Segoe UI" font-weight="700"><tspan x="95" y="29.916">Finance</tspan></text></svg>