<svg xmlns="http://www.w3.org/2000/svg" width="152" height="53" viewBox="0 0 152 53">
  <g id="Group_782" data-name="Group 782" transform="translate(-1553 -40)">
    <rect id="Rectangle_91" data-name="Rectangle 91" width="152" height="53" rx="26" transform="translate(1553 40)" fill="#63cffe"/>
    <path id="Path_67458" data-name="Path 67458" d="M1.441,0V-12.6H5.906q6.715,0,6.715,6.144a6.212,6.212,0,0,1-1.833,4.7A6.757,6.757,0,0,1,5.906,0ZM4.28-10.292V-2.3H5.687a3.8,3.8,0,0,0,2.9-1.107,4.2,4.2,0,0,0,1.05-3.015A3.812,3.812,0,0,0,8.591-9.259a3.971,3.971,0,0,0-2.922-1.033ZM25.523,0H22.43l-.9-2.8H17.051L16.163,0H13.087l4.588-12.6h3.366ZM20.883-4.983,19.529-9.22a5.521,5.521,0,0,1-.211-1.134h-.07a4.807,4.807,0,0,1-.22,1.1L17.657-4.983Zm8.754,3.938H29.6V4.14H26.824V-9H29.6v1.354h.035A3.265,3.265,0,0,1,32.528-9.22a3.253,3.253,0,0,1,2.7,1.2,5.108,5.108,0,0,1,.954,3.265,5.537,5.537,0,0,1-1.112,3.612A3.625,3.625,0,0,1,32.115.22,2.8,2.8,0,0,1,29.637-1.046Zm-.079-3.691v.721A2.291,2.291,0,0,0,30.05-2.5a1.6,1.6,0,0,0,1.292.589,1.7,1.7,0,0,0,1.472-.734,3.543,3.543,0,0,0,.523-2.079q0-2.373-1.846-2.373a1.733,1.733,0,0,0-1.393.646A2.576,2.576,0,0,0,29.558-4.737ZM40.8-1.046h-.035V4.14H37.986V-9h2.777v1.354H40.8A3.265,3.265,0,0,1,43.69-9.22a3.253,3.253,0,0,1,2.7,1.2,5.108,5.108,0,0,1,.954,3.265,5.537,5.537,0,0,1-1.112,3.612A3.625,3.625,0,0,1,43.277.22,2.8,2.8,0,0,1,40.8-1.046ZM40.72-4.737v.721A2.291,2.291,0,0,0,41.212-2.5a1.6,1.6,0,0,0,1.292.589,1.7,1.7,0,0,0,1.472-.734A3.543,3.543,0,0,0,44.5-4.72q0-2.373-1.846-2.373a1.733,1.733,0,0,0-1.393.646A2.576,2.576,0,0,0,40.72-4.737Z" transform="translate(1609 73)" fill="#fff"/>
  </g>
</svg>
