<svg xmlns="http://www.w3.org/2000/svg" width="25.529" height="19.45" viewBox="0 0 25.529 19.45">
  <path id="Path_67445" data-name="Path 67445" d="M6932.475,728.981a.25.25,0,0,0-.1-.082,21.064,21.064,0,0,0-5.158-1.591.111.111,0,0,0-.115.056c-.095.176-.356.674-.617,1.3a24.333,24.333,0,0,0-5.849,0c-.261-.63-.522-1.127-.617-1.3a.111.111,0,0,0-.115-.056,21.049,21.049,0,0,0-5.158,1.591.243.243,0,0,0-.1.082,21.853,21.853,0,0,0-3.745,14.439.161.161,0,0,0,.057.1,23.424,23.424,0,0,0,6.318,3.228.131.131,0,0,0,.145-.044,10.756,10.756,0,0,0,1.283-2.171.033.033,0,0,0-.021-.044,10.017,10.017,0,0,1-2.011-1,.036.036,0,0,1,0-.057l.393-.336a.087.087,0,0,1,.093-.013,14.506,14.506,0,0,0,12.806,0,.087.087,0,0,1,.093.013l.392.336a.035.035,0,0,1,0,.057,10.017,10.017,0,0,1-2.011,1,.033.033,0,0,0-.021.044,10.756,10.756,0,0,0,1.283,2.171.13.13,0,0,0,.145.044,23.418,23.418,0,0,0,6.318-3.228.161.161,0,0,0,.057-.1A21.853,21.853,0,0,0,6932.475,728.981Zm-13.134,11.611a2.592,2.592,0,1,1,2.269-2.571A2.434,2.434,0,0,1,6919.341,740.592Zm8.445,0a2.592,2.592,0,1,1,2.27-2.571A2.434,2.434,0,0,1,6927.786,740.592Z" transform="translate(-6910.799 -727.306)" fill="#fff"/>
</svg>
