<svg xmlns="http://www.w3.org/2000/svg" xmlns:xlink="http://www.w3.org/1999/xlink" width="656.52" height="193.32" viewBox="0 0 656.52 193.32">
  <defs>
    <filter id="Path_67456" x="1.19" y="0" width="458.9" height="127.65" filterUnits="userSpaceOnUse">
      <feOffset dy="10" input="SourceAlpha"/>
      <feGaussianBlur stdDeviation="15" result="blur"/>
      <feFlood flood-opacity="0.431"/>
      <feComposite operator="in" in2="blur"/>
      <feComposite in="SourceGraphic"/>
    </filter>
    <filter id="Path_67457" x="0" y="66.4" width="656.52" height="126.92" filterUnits="userSpaceOnUse">
      <feOffset dy="10" input="SourceAlpha"/>
      <feGaussianBlur stdDeviation="15" result="blur-2"/>
      <feFlood flood-opacity="0.431"/>
      <feComposite operator="in" in2="blur-2"/>
      <feComposite in="SourceGraphic"/>
    </filter>
  </defs>
  <g id="Group_789" data-name="Group 789" transform="translate(-999.96 -368)">
    <g transform="matrix(1, 0, 0, 1, 999.96, 368)" filter="url(#Path_67456)">
      <path id="Path_67456-2" data-name="Path 67456" d="M12.55,0V-10.8h6.3c7.95,0,13.8-4.15,13.8-12.2v-.3c0-7.95-6-12.2-13.8-12.2H2.15V0Zm0-27.1h5c2.55,0,4.3,1.1,4.3,3.8v.3c0,2.7-1.75,3.8-4.3,3.8h-5ZM41.6.65c3.95,0,6.75-1.55,8.25-4.3L50.15,0h9.6V-18c0-5.3-5.05-8.6-12.45-8.6-7.7,0-12.75,3.35-12.85,8.9H44c.1-1.5,1.1-2.4,3.05-2.4,1.8,0,2.65.9,2.65,2.25v1.95l-7.95.9c-5.4.6-8.4,3.3-8.4,7.85S36.8.65,41.6.65Zm4.05-6.4c-1.75,0-2.6-.9-2.6-2.25,0-1.15.8-2.1,2.5-2.3l4.15-.5v1.45C49.7-7.1,47.9-5.75,45.65-5.75ZM73.6,0V-14.05c0-3.15,1.5-4.7,3.65-4.7,2.5,0,3.25,1.8,3.25,4.75V0h10V-16.6c0-5.65-2.25-10-9.05-10a8.834,8.834,0,0,0-8.1,4.55l-.25-3.9H63.6V0Zm31.5.65a7.606,7.606,0,0,0,7.4-4.95l.3,4.3h9.35V-37H112.1v14.4a8.1,8.1,0,0,0-7.35-4c-7.1,0-11.1,5.95-11.1,13.45v.3C93.65-5.2,97.9.65,105.1.65Zm2.95-7.35c-3.15,0-4.3-2-4.3-6.15v-.3c0-4.15,1.15-6.15,4.3-6.15s4.3,2,4.3,6.15v.3C112.35-8.7,111.2-6.7,108.05-6.7ZM133.45.65c3.95,0,6.75-1.55,8.25-4.3L142,0h9.6V-18c0-5.3-5.05-8.6-12.45-8.6-7.7,0-12.75,3.35-12.85,8.9h9.55c.1-1.5,1.1-2.4,3.05-2.4,1.8,0,2.65.9,2.65,2.25v1.95l-7.95.9c-5.4.6-8.4,3.3-8.4,7.85S128.65.65,133.45.65Zm4.05-6.4c-1.75,0-2.6-.9-2.6-2.25,0-1.15.8-2.1,2.5-2.3l4.15-.5v1.45C141.55-7.1,139.75-5.75,137.5-5.75ZM174.25,0V-10.8h6.3c7.95,0,13.8-4.15,13.8-12.2v-.3c0-7.95-6-12.2-13.8-12.2h-16.7V0Zm0-27.1h5c2.55,0,4.3,1.1,4.3,3.8v.3c0,2.7-1.75,3.8-4.3,3.8h-5Zm33,27.1V-11.25c0-3.6,1.75-5.65,6.45-5.65a17.964,17.964,0,0,1,2.35.15v-9.5a8.775,8.775,0,0,0-1.75-.15c-4.05,0-6.3,2.75-7.35,5.6l-.2-5.15h-9.5V0Zm24.7.65c8.5,0,14.2-5.65,14.2-13.45v-.35c0-7.8-5.7-13.45-14.2-13.45s-14.2,5.65-14.2,13.45v.35C217.75-5,223.45.65,231.95.65Zm0-7.4c-3.05,0-4.1-2-4.1-6.05v-.35c0-4.05,1.05-6.05,4.1-6.05s4.1,2,4.1,6.05v.35C236.05-8.75,235-6.75,231.95-6.75Zm30,7.4a24.6,24.6,0,0,0,5.65-.7V-7.2a9.206,9.206,0,0,1-3,.5c-2.1,0-3.1-.5-3.1-2.2v-10h6v-7.05h-6v-8.3h-10v8.3h-4.45v7.05h4.45V-8.5C251.5-2.5,254.65.65,261.95.65Zm21.8,0c8.5,0,14.2-5.65,14.2-13.45v-.35c0-7.8-5.7-13.45-14.2-13.45s-14.2,5.65-14.2,13.45v.35C269.55-5,275.25.65,283.75.65Zm0-7.4c-3.05,0-4.1-2-4.1-6.05v-.35c0-4.05,1.05-6.05,4.1-6.05s4.1,2,4.1,6.05v.35C287.85-8.75,286.8-6.75,283.75-6.75Zm30.6,7.4c7.35,0,12.35-4.15,13-11.25H317.6c-.25,2.25-.85,3.85-3.35,3.85-2.65,0-3.6-2.1-3.6-6.1v-.3c0-3.85.95-6.05,3.6-6.05,2.5,0,3.15,1.7,3.4,4h9.8c-.8-7.25-5.75-11.4-13.1-11.4-8.4,0-13.8,5.3-13.8,13.45v.3C300.55-4.6,305.95.65,314.35.65Zm29.2,0c8.5,0,14.2-5.65,14.2-13.45v-.35c0-7.8-5.7-13.45-14.2-13.45s-14.2,5.65-14.2,13.45v.35C329.35-5,335.05.65,343.55.65Zm0-7.4c-3.05,0-4.1-2-4.1-6.05v-.35c0-4.05,1.05-6.05,4.1-6.05s4.1,2,4.1,6.05v.35C347.65-8.75,346.6-6.75,343.55-6.75ZM361.05-37V0h10V-37Z" transform="translate(44.04 72)" fill="#fff"/>
    </g>
    <g transform="matrix(1, 0, 0, 1, 999.96, 368)" filter="url(#Path_67457)">
      <path id="Path_67457-2" data-name="Path 67457" d="M15.56.52c9.04,0,14.64-6.2,14.64-14.4v-.64c0-8.2-5.6-14.4-14.64-14.4-9,0-14.6,6.2-14.6,14.4v.64C.96-5.68,6.56.52,15.56.52Zm0-6.8c-3.8,0-5.84-2.88-5.84-7.6v-.64c0-4.72,1.96-7.6,5.84-7.6s5.88,2.88,5.88,7.6v.64C21.44-9.16,19.4-6.28,15.56-6.28ZM40.76,0V-11.24c0-2.52,1.2-3.76,2.92-3.76,2,0,2.6,1.44,2.6,3.8V0h8V-13.28c0-4.52-1.8-8-7.24-8a7.067,7.067,0,0,0-6.48,3.64l-.2-3.12h-7.6V0ZM70.88-8.56v-5.68H57.16v5.68ZM84.36.52c5.88,0,9.88-3.32,10.4-9h-7.8c-.2,1.8-.68,3.08-2.68,3.08-2.12,0-2.88-1.68-2.88-4.88v-.24c0-3.08.76-4.84,2.88-4.84,2,0,2.52,1.36,2.72,3.2h7.84c-.64-5.8-4.6-9.12-10.48-9.12-6.72,0-11.04,4.24-11.04,10.76v.24C73.32-3.68,77.64.52,84.36.52ZM105.12,0V-11.24c0-2.52,1.2-3.76,2.92-3.76,2,0,2.6,1.44,2.6,3.8V0h8V-13.28c0-4.52-1.8-8-7.24-8a7.024,7.024,0,0,0-6.24,3.24V-29.6H97.12V0Zm22.44.52c3.16,0,5.4-1.24,6.6-3.44L134.4,0h7.68V-14.4c0-4.24-4.04-6.88-9.96-6.88-6.16,0-10.2,2.68-10.28,7.12h7.64c.08-1.2.88-1.92,2.44-1.92,1.44,0,2.12.72,2.12,1.8v1.56l-6.36.72c-4.32.48-6.72,2.64-6.72,6.28S123.72.52,127.56.52ZM130.8-4.6c-1.4,0-2.08-.72-2.08-1.8,0-.92.64-1.68,2-1.84l3.32-.4v1.16A2.94,2.94,0,0,1,130.8-4.6Zm22.48-25h-8.24v6.8h8.24Zm-8.12,8.84V0h8V-20.76ZM164.36,0V-11.24c0-2.52,1.2-3.76,2.92-3.76,2,0,2.6,1.44,2.6,3.8V0h8V-13.28c0-4.52-1.8-8-7.24-8a7.067,7.067,0,0,0-6.48,3.64l-.2-3.12h-7.6V0Zm51.96,0L205.84-28.4H196.6L186.16,0h8.52l1.56-4.72h9.8L207.56,0Zm-15.2-19.72L203.96-11h-5.68ZM226.92.52c6.36,0,10-2.92,10-7.24,0-3.48-2.04-5.6-8.4-6.4-3.48-.44-3.88-.92-3.88-1.72,0-.68.64-1.24,2-1.24,1.52,0,2.48.64,2.56,1.84h7.4c-.32-4.4-3.84-7.04-9.92-7.04-5.84,0-9.68,2.64-9.68,6.88,0,3.72,2.36,5.56,8.36,6.48,3.6.56,3.8,1.16,3.8,1.88s-.68,1.28-2.24,1.28c-1.72,0-2.72-.84-2.92-2.08h-7.52C216.76-2.32,220.16.52,226.92.52Zm21.28,0c6.36,0,10-2.92,10-7.24,0-3.48-2.04-5.6-8.4-6.4-3.48-.44-3.88-.92-3.88-1.72,0-.68.64-1.24,2-1.24,1.52,0,2.48.64,2.56,1.84h7.4c-.32-4.4-3.84-7.04-9.92-7.04-5.84,0-9.68,2.64-9.68,6.88,0,3.72,2.36,5.56,8.36,6.48,3.6.56,3.8,1.16,3.8,1.88s-.68,1.28-2.24,1.28c-1.72,0-2.72-.84-2.92-2.08h-7.52C238.04-2.32,241.44.52,248.2.52Zm23.16,0c5.76,0,9.76-2.96,10.76-7.36h-7.8a3.034,3.034,0,0,1-3.04,1.72c-2.28,0-3.4-1-3.72-3.52h14.68c.48-7.44-3.36-12.64-10.88-12.64-6.84,0-11.44,4.28-11.44,10.76v.24C259.92-3.64,264.36.52,271.36.52ZM267.6-12.44c.36-2.32,1.44-3.2,3.64-3.2,2.12,0,3.08,1.32,3.08,3.2ZM294.92.52a19.68,19.68,0,0,0,4.52-.56V-5.76a7.365,7.365,0,0,1-2.4.4c-1.68,0-2.48-.4-2.48-1.76v-8h4.8v-5.64h-4.8V-27.4h-8v6.64H283v5.64h3.56V-6.8C286.56-2,289.08.52,294.92.52ZM316.88,0V-18.44L322.16,0h6.32l5.24-18.28V0h7.84V-28.4H330.44l-4.92,17.48L320.64-28.4H308.88V0Zm33.84.52c3.16,0,5.4-1.24,6.6-3.44L357.56,0h7.68V-14.4c0-4.24-4.04-6.88-9.96-6.88-6.16,0-10.2,2.68-10.28,7.12h7.64c.08-1.2.88-1.92,2.44-1.92,1.44,0,2.12.72,2.12,1.8v1.56l-6.36.72c-4.32.48-6.72,2.64-6.72,6.28S346.88.52,350.72.52Zm3.24-5.12c-1.4,0-2.08-.72-2.08-1.8,0-.92.64-1.68,2-1.84l3.32-.4v1.16A2.94,2.94,0,0,1,353.96-4.6ZM376.32,0V-11.24c0-2.52,1.2-3.76,2.92-3.76,2,0,2.6,1.44,2.6,3.8V0h8V-13.28c0-4.52-1.8-8-7.24-8a7.067,7.067,0,0,0-6.48,3.64l-.2-3.12h-7.6V0Zm22.44.52c3.16,0,5.4-1.24,6.6-3.44L405.6,0h7.68V-14.4c0-4.24-4.04-6.88-9.96-6.88-6.16,0-10.2,2.68-10.28,7.12h7.64c.08-1.2.88-1.92,2.44-1.92,1.44,0,2.12.72,2.12,1.8v1.56l-6.36.72c-4.32.48-6.72,2.64-6.72,6.28S394.92.52,398.76.52ZM402-4.6c-1.4,0-2.08-.72-2.08-1.8,0-.92.64-1.68,2-1.84l3.32-.4v1.16A2.94,2.94,0,0,1,402-4.6ZM427.28,7.32c6.6,0,11.32-2.88,11.32-8.92V-20.76h-7.48l-.24,3.44a6.085,6.085,0,0,0-5.92-3.96c-5.76,0-9.16,4.68-9.16,10.08v.24c0,5.28,3.2,10.04,8.88,10.04a6.492,6.492,0,0,0,5.88-3.2V-.44c0,1.64-1.04,2.56-3.12,2.56-1.88,0-2.72-.64-2.96-1.76h-7.72C416.92,4.64,420.96,7.32,427.28,7.32Zm.04-14.12c-2.52,0-3.44-1.6-3.44-4.2v-.24c0-2.6.92-4.2,3.44-4.2s3.44,1.6,3.44,4.2V-11C430.76-8.4,429.84-6.8,427.32-6.8ZM452.68.52c5.76,0,9.76-2.96,10.76-7.36h-7.8a3.034,3.034,0,0,1-3.04,1.72c-2.28,0-3.4-1-3.72-3.52h14.68c.48-7.44-3.36-12.64-10.88-12.64-6.84,0-11.44,4.28-11.44,10.76v.24C441.24-3.64,445.68.52,452.68.52Zm-3.76-12.96c.36-2.32,1.44-3.2,3.64-3.2,2.12,0,3.08,1.32,3.08,3.2ZM474.24,0V-11c0-3.04,1.12-4.08,2.72-4.08q2.28,0,2.28,3.6V0h8V-10.88c0-3.04.96-4.2,2.64-4.2,1.44,0,2.36,1.12,2.36,3.56V0h8V-13c0-4.84-1.88-8.28-7.2-8.28a7.478,7.478,0,0,0-6.6,3.68c-1.08-2.6-3.24-3.68-6.28-3.68a6.8,6.8,0,0,0-6.12,3.68l-.2-3.16h-7.6V0ZM514.2.52c5.76,0,9.76-2.96,10.76-7.36h-7.8a3.034,3.034,0,0,1-3.04,1.72c-2.28,0-3.4-1-3.72-3.52h14.68c.48-7.44-3.36-12.64-10.88-12.64-6.84,0-11.44,4.28-11.44,10.76v.24C502.76-3.64,507.2.52,514.2.52Zm-3.76-12.96c.36-2.32,1.44-3.2,3.64-3.2,2.12,0,3.08,1.32,3.08,3.2ZM535.76,0V-11.24c0-2.52,1.2-3.76,2.92-3.76,2,0,2.6,1.44,2.6,3.8V0h8V-13.28c0-4.52-1.8-8-7.24-8a7.067,7.067,0,0,0-6.48,3.64l-.2-3.12h-7.6V0Zm27.2.52a19.68,19.68,0,0,0,4.52-.56V-5.76a7.364,7.364,0,0,1-2.4.4c-1.68,0-2.48-.4-2.48-1.76v-8h4.8v-5.64h-4.8V-27.4h-8v6.64h-3.56v5.64h3.56V-6.8C554.6-2,557.12.52,562.96.52Z" transform="translate(44.04 131)" fill="#fff"/>
    </g>
    <g id="black_modern_panda_logo_design_illustration_" data-name="black modern panda logo design illustration " transform="translate(1497.5 436.527)">
      <g id="Group_787" data-name="Group 787" transform="translate(-111.5 -111.5)">
        <g id="Group_786" data-name="Group 786" transform="translate(43.997 50.382)">
          <path id="Path_67447" data-name="Path 67447" d="M1810.37,1897.974c-.206,5.495-3.414,8.561-7.854,8.225a10.949,10.949,0,0,0,.279-3.231c-1.123,3.169-3.528,5.118-6.343,4.7a12.949,12.949,0,0,1-3.728,4.405c-7.917,8.122,2.023,13.7,6.646,9.364q10.473-7.643,17.115-5.448,9.566,1.555,10.322-3.648c2.775-8.184,3.163-15.947.176-21.572a17.722,17.722,0,0,0-16.232-8.674c5.283,4.5,4.3,11.063-.381,15.884" transform="translate(-1753.599 -1849.234)" fill="#63cffe" fill-rule="evenodd"/>
          <path id="Path_67448" data-name="Path 67448" d="M2723.951,2215.689c.068,5.471-.325,8.732-1.961,10.931-2.371-6.212-11.057-3.567-8.583.525.952,1.527,6.287,3.448,9.222,6.235,1.955,2.382,7.569,2.877,8.937,2.268q5.686-6.719,5.306-17.861c-1.168-7.033-11.028-8.458-12.92-2.1" transform="translate(-2635.434 -2164.042)" fill="#63cffe" fill-rule="evenodd"/>
          <path id="Path_67449" data-name="Path 67449" d="M1948.987,1746.315c1.14-1.123,1.186-3,.137-5.608-1.949-4.514-4.918-7.067-7.968-6.144q-2.616,1.436-2.069,8.048c.547,1.8,2.855,2.411,4.52,2.667q.419-2.966,2.16-1.226c1.14,1.533,1.8,2.554,3.22,2.263" transform="translate(-1896.142 -1708.175)" fill="#63cffe" fill-rule="evenodd"/>
          <path id="Path_67450" data-name="Path 67450" d="M1911.99,2130.362q-.437-3.489-5.215-4.651c-3.038-.193-3.693,2.086-2.8,4.479a12.042,12.042,0,0,1,5.716,2.28q1.6-.017,2.3-2.108" transform="translate(-1862.343 -2081.963)" fill="#63cffe" fill-rule="evenodd"/>
          <path id="Path_67451" data-name="Path 67451" d="M1851.393,2360.312a2.289,2.289,0,0,0-2.8.963c-1.676.444-2.4,1.123-2.2,2.023a3.184,3.184,0,0,0,3.431.689c1.465-1.379,1.983-2.6,1.568-3.676" transform="translate(-1807.661 -2305.871)" fill="#63cffe" fill-rule="evenodd"/>
          <path id="Path_67452" data-name="Path 67452" d="M1735.978,2250.25a8.558,8.558,0,0,1-.535-4.451c.062-2.9-2.189-3.7-3.2-1.762q-.171,4.89,3.733,6.213" transform="translate(-1698.653 -2193.986)" fill="#63cffe" fill-rule="evenodd"/>
          <path id="Path_67453" data-name="Path 67453" d="M1569.067,2072.469a9.858,9.858,0,0,1,.439-5.694c-3.22-1.105-5.152-1.026-5.785.257-.678,2.194,1.55,4,5.346,5.437" transform="translate(-1537.572 -2024.942)" fill="#63cffe" fill-rule="evenodd"/>
          <path id="Path_67454" data-name="Path 67454" d="M1708.733,1186.667a35.04,35.04,0,1,1,67.783,14.231,10.079,10.079,0,0,1,.484,2.262,29.305,29.305,0,0,1,.068,5.193,38.8,38.8,0,1,0-72.143-19.84v.006c0,.616.017,1.22.045,1.83a7.259,7.259,0,0,1,1-1.477,10.781,10.781,0,0,1,2.758-2.205" transform="translate(-1672.565 -1149.718)" fill="#63cffe" fill-rule="evenodd"/>
          <path id="Path_67455" data-name="Path 67455" d="M2157.815,2714.567a35.107,35.107,0,0,1-29.369-1.037,20.508,20.508,0,0,0-4.2,1.961,38.859,38.859,0,0,0,37.177,1.556,9.51,9.51,0,0,1-3.34-2.206c-.085-.092-.177-.183-.268-.274" transform="translate(-2073.094 -2643.451)" fill="#63cffe" fill-rule="evenodd"/>
        </g>
      </g>
    </g>
  </g>
</svg>
