<svg xmlns="http://www.w3.org/2000/svg" width="659" height="207" xmlns:v="https://vecta.io/nano"><defs><filter id="A" x="0" y="0" width="464" height="151" filterUnits="userSpaceOnUse"><feOffset dy="10"/><feGaussianBlur stdDeviation="15" result="A"/><feFlood flood-opacity=".431"/><feComposite operator="in" in2="A"/><feComposite in="SourceGraphic"/></filter><filter id="B" x="0" y="69" width="659" height="138" filterUnits="userSpaceOnUse"><feOffset dy="10"/><feGaussianBlur stdDeviation="15" result="A"/><feFlood flood-opacity=".431"/><feComposite operator="in" in2="A"/><feComposite in="SourceGraphic"/></filter></defs><g transform="translate(-999 -357)"><g transform="translate(999 357)" filter="url(#A)"><text fill="#fff" font-size="50" font-family="Elza-Black, Elza" font-weight="800"><tspan x="45" y="83">Panda Protocol</tspan></text></g><g transform="translate(999 357)" filter="url(#B)"><text fill="#fff" font-size="40" font-family="Elza-Black, Elza" font-weight="800"><tspan x="45" y="142">On-chain Asset Management</tspan></text></g><g fill="#63cffe" fill-rule="evenodd"><path d="M1486.768 424.149c-.206 5.495-3.414 8.561-7.854 8.225a10.95 10.95 0 0 0 .279-3.231c-1.123 3.169-3.528 5.118-6.343 4.7a12.95 12.95 0 0 1-3.728 4.405c-7.917 8.122 2.023 13.7 6.646 9.364q10.473-7.643 17.115-5.448 9.566 1.555 10.322-3.648c2.775-8.184 3.163-15.947.176-21.572-3.368-5.694-9.626-9.039-16.232-8.674 5.283 4.5 4.3 11.063-.381 15.884m31.746 2.902c.068 5.471-.325 8.732-1.961 10.931-2.371-6.212-11.057-3.567-8.583.525.952 1.527 6.287 3.448 9.222 6.235 1.955 2.382 7.569 2.877 8.937 2.268q5.686-6.719 5.306-17.861c-1.168-7.033-11.028-8.458-12.92-2.1m-35.673-13.505c1.14-1.123 1.186-3 .137-5.608-1.949-4.514-4.918-7.067-7.968-6.144q-2.616 1.436-2.069 8.048c.547 1.8 2.855 2.411 4.52 2.667q.419-2.966 2.16-1.226c1.14 1.533 1.8 2.554 3.22 2.263m-3.198 10.259q-.437-3.489-5.215-4.651c-3.038-.193-3.693 2.086-2.8 4.479a12.04 12.04 0 0 1 5.716 2.28q1.6-.017 2.3-2.108m-5.916 6.042a2.29 2.29 0 0 0-2.8.963c-1.676.444-2.4 1.123-2.2 2.023.904.894 2.252 1.165 3.431.689 1.465-1.379 1.983-2.6 1.568-3.676m-6.406 1.824a8.56 8.56 0 0 1-.535-4.451c.062-2.9-2.189-3.7-3.2-1.762q-.171 4.89 3.733 6.213m-5.828-8.737a9.86 9.86 0 0 1 .439-5.694c-3.22-1.105-5.152-1.026-5.785.257-.678 2.194 1.55 4 5.346 5.437"/><path d="M1466.165 412.358a35.04 35.04 0 1 1 67.783 14.231 10.08 10.08 0 0 1 .484 2.262 29.34 29.34 0 0 1 .068 5.193 38.8 38.8 0 1 0-72.143-19.84v.006a39.7 39.7 0 0 0 .045 1.83 7.26 7.26 0 0 1 1-1.477 10.78 10.78 0 0 1 2.758-2.205m48.558 34.167c-9.47 3.965-20.202 3.587-29.369-1.037a20.51 20.51 0 0 0-4.2 1.961 38.86 38.86 0 0 0 37.177 1.556 9.51 9.51 0 0 1-3.34-2.206c-.085-.092-.177-.183-.268-.274"/></g></g></svg>