<svg xmlns="http://www.w3.org/2000/svg" xmlns:xlink="http://www.w3.org/1999/xlink" width="659" height="207" viewBox="0 0 659 207">
  <defs>
    <style>
      @import url(https://use.typekit.net/sha8osa.css);

      .cls-1, .cls-2 {
        fill: #fff;
        font-family: Elza-Black, Elza;
        font-weight: 800;
      }

      .cls-1 {
        font-size: 50px;
      }

      .cls-2 {
        font-size: 40px;
      }

      .cls-3 {
        fill: #63cffe;
        fill-rule: evenodd;
      }

      .cls-4 {
        filter: url(#On-chain_Asset_Management);
      }

      .cls-5 {
        filter: url(#Panda_Protocol);
      }
    </style>
    <filter id="Panda_Protocol" x="0" y="0" width="464" height="151" filterUnits="userSpaceOnUse">
      <feOffset dy="10" input="SourceAlpha"/>
      <feGaussianBlur stdDeviation="15" result="blur"/>
      <feFlood flood-opacity="0.431"/>
      <feComposite operator="in" in2="blur"/>
      <feComposite in="SourceGraphic"/>
    </filter>
    <filter id="On-chain_Asset_Management" x="0" y="69" width="659" height="138" filterUnits="userSpaceOnUse">
      <feOffset dy="10" input="SourceAlpha"/>
      <feGaussianBlur stdDeviation="15" result="blur-2"/>
      <feFlood flood-opacity="0.431"/>
      <feComposite operator="in" in2="blur-2"/>
      <feComposite in="SourceGraphic"/>
    </filter>
  </defs>
  <g id="Group_789" data-name="Group 789" transform="translate(-999 -357)">
    <g class="cls-5" transform="matrix(1, 0, 0, 1, 999, 357)">
      <text id="Panda_Protocol-2" data-name="Panda Protocol" class="cls-1" transform="translate(45 83)"><tspan x="0" y="0">Panda Protocol</tspan></text>
    </g>
    <g class="cls-4" transform="matrix(1, 0, 0, 1, 999, 357)">
      <text id="On-chain_Asset_Management-2" data-name="On-chain Asset Management" class="cls-2" transform="translate(45 142)"><tspan x="0" y="0">On-chain Asset Management</tspan></text>
    </g>
    <g id="black_modern_panda_logo_design_illustration_" data-name="black modern panda logo design illustration " transform="translate(1497.5 436.527)">
      <g id="Group_787" data-name="Group 787" transform="translate(-111.5 -111.5)">
        <g id="Group_786" data-name="Group 786" transform="translate(43.997 50.382)">
          <path id="Path_67447" data-name="Path 67447" class="cls-3" d="M1810.37,1897.974c-.206,5.495-3.414,8.561-7.854,8.225a10.949,10.949,0,0,0,.279-3.231c-1.123,3.169-3.528,5.118-6.343,4.7a12.949,12.949,0,0,1-3.728,4.405c-7.917,8.122,2.023,13.7,6.646,9.364q10.473-7.643,17.115-5.448,9.566,1.555,10.322-3.648c2.775-8.184,3.163-15.947.176-21.572a17.722,17.722,0,0,0-16.232-8.674c5.283,4.5,4.3,11.063-.381,15.884" transform="translate(-1753.599 -1849.234)"/>
          <path id="Path_67448" data-name="Path 67448" class="cls-3" d="M2723.951,2215.689c.068,5.471-.325,8.732-1.961,10.931-2.371-6.212-11.057-3.567-8.583.525.952,1.527,6.287,3.448,9.222,6.235,1.955,2.382,7.569,2.877,8.937,2.268q5.686-6.719,5.306-17.861c-1.168-7.033-11.028-8.458-12.92-2.1" transform="translate(-2635.434 -2164.042)"/>
          <path id="Path_67449" data-name="Path 67449" class="cls-3" d="M1948.987,1746.315c1.14-1.123,1.186-3,.137-5.608-1.949-4.514-4.918-7.067-7.968-6.144q-2.616,1.436-2.069,8.048c.547,1.8,2.855,2.411,4.52,2.667q.419-2.966,2.16-1.226c1.14,1.533,1.8,2.554,3.22,2.263" transform="translate(-1896.142 -1708.175)"/>
          <path id="Path_67450" data-name="Path 67450" class="cls-3" d="M1911.99,2130.362q-.437-3.489-5.215-4.651c-3.038-.193-3.693,2.086-2.8,4.479a12.042,12.042,0,0,1,5.716,2.28q1.6-.017,2.3-2.108" transform="translate(-1862.343 -2081.963)"/>
          <path id="Path_67451" data-name="Path 67451" class="cls-3" d="M1851.393,2360.312a2.289,2.289,0,0,0-2.8.963c-1.676.444-2.4,1.123-2.2,2.023a3.184,3.184,0,0,0,3.431.689c1.465-1.379,1.983-2.6,1.568-3.676" transform="translate(-1807.661 -2305.871)"/>
          <path id="Path_67452" data-name="Path 67452" class="cls-3" d="M1735.978,2250.25a8.558,8.558,0,0,1-.535-4.451c.062-2.9-2.189-3.7-3.2-1.762q-.171,4.89,3.733,6.213" transform="translate(-1698.653 -2193.986)"/>
          <path id="Path_67453" data-name="Path 67453" class="cls-3" d="M1569.067,2072.469a9.858,9.858,0,0,1,.439-5.694c-3.22-1.105-5.152-1.026-5.785.257-.678,2.194,1.55,4,5.346,5.437" transform="translate(-1537.572 -2024.942)"/>
          <path id="Path_67454" data-name="Path 67454" class="cls-3" d="M1708.733,1186.667a35.04,35.04,0,1,1,67.783,14.231,10.079,10.079,0,0,1,.484,2.262,29.305,29.305,0,0,1,.068,5.193,38.8,38.8,0,1,0-72.143-19.84v.006c0,.616.017,1.22.045,1.83a7.259,7.259,0,0,1,1-1.477,10.781,10.781,0,0,1,2.758-2.205" transform="translate(-1672.565 -1149.718)"/>
          <path id="Path_67455" data-name="Path 67455" class="cls-3" d="M2157.815,2714.567a35.107,35.107,0,0,1-29.369-1.037,20.508,20.508,0,0,0-4.2,1.961,38.859,38.859,0,0,0,37.177,1.556,9.51,9.51,0,0,1-3.34-2.206c-.085-.092-.177-.183-.268-.274" transform="translate(-2073.094 -2643.451)"/>
        </g>
      </g>
    </g>
  </g>
</svg>
