<svg id="Group_780" data-name="Group 780" xmlns="http://www.w3.org/2000/svg" width="24.47" height="20.275" viewBox="0 0 24.47 20.275">
  <path id="Path_67425" data-name="Path 67425" d="M3519.2,732.382a.4.4,0,0,0-.473-.025l-9.6,6.368a4.841,4.841,0,0,1-1.389.648,3.654,3.654,0,0,1-2.007-.015l-3.831-1.105a2.3,2.3,0,0,1-.448-.178c-1.039-.556-.654-1.409.811-2,6.986-3.069,13.757-5.925,20.258-8.513a4.055,4.055,0,0,1,2.126-.234.915.915,0,0,1,.3.156c.206.164.483.539.358,1.861q-1.044,7.879-2.582,16.26c-.352,1.687-1.323,2.3-2.763,1.691a3.928,3.928,0,0,1-.658-.361l-6.954-4.688a2.427,2.427,0,0,1-.386-.318c-.646-.662-.614-1.4.289-2.246,2.223-2.049,4.561-4.31,6.976-6.714a.4.4,0,0,0-.026-.586Z" transform="translate(-3500.866 -727.252)" fill="#fff"/>
</svg>
