<svg xmlns="http://www.w3.org/2000/svg" width="25.112" height="20.559" viewBox="0 0 25.112 20.559">
  <g id="Group_752" data-name="Group 752" transform="translate(0)">
    <path id="Path_67407" data-name="Path 67407" d="M361.532,744.58a14.693,14.693,0,0,0,22.62-13.09,11.365,11.365,0,0,0,2.492-2.656,8.542,8.542,0,0,1-2.574.63,4.32,4.32,0,0,0,1.862-2.738,7.964,7.964,0,0,1-3.2,1.287,5.23,5.23,0,0,0-8.927,4.655,14.564,14.564,0,0,1-10.571-5.477,5.378,5.378,0,0,0,1.287,6.983,5.535,5.535,0,0,1-2.026-.63c-.131,2.706,1.534,4.192,3.861,5.23a7.255,7.255,0,0,1-2.054.082c.545,2.2,2.275,3.243,4.683,3.615A11.223,11.223,0,0,1,361.532,744.58Z" transform="translate(-361.532 -726.347)" fill="#fff"/>
  </g>
</svg>
