<svg xmlns="http://www.w3.org/2000/svg" width="26.555" height="18.797" viewBox="0 0 26.555 18.797">
  <g id="Group_755" data-name="Group 755" transform="translate(0)">
    <g id="Group_754" data-name="Group 754" transform="translate(0)">
      <g id="Group_753" data-name="Group 753">
        <path id="Path_67408" data-name="Path 67408" d="M669.447,736.174a4.236,4.236,0,0,0-3.884-3.909c-2.044-.164-5.008-.308-9.2-.308s-7.152.144-9.2.308a4.236,4.236,0,0,0-3.884,3.909c-.119,1.607-.2,3.364-.2,5.182s.079,3.575.2,5.182a4.236,4.236,0,0,0,3.884,3.909c2.044.164,5.008.308,9.2.308s7.152-.144,9.2-.308a4.236,4.236,0,0,0,3.884-3.909c.119-1.607.2-3.364.2-5.182S669.566,737.781,669.447,736.174Zm-15.638,9.255v-8.146l6.788,4.09Z" transform="translate(-643.09 -731.957)" fill="#fff"/>
      </g>
    </g>
  </g>
</svg>
